<svg xmlns="http://www.w3.org/2000/svg" viewBox="0 0 264.67 239.48"><defs><style>.cls-1{fill:#fcd400;}.cls-2{fill:#f8af00;}.cls-3{fill:#e46f0b;}.cls-4{fill:#feeeb0;}</style></defs><title>sketch</title><g id="Capa_2" data-name="Capa 2"><g id="Capa_1-2" data-name="Capa 1"><polygon class="cls-1" points="132.33 0 206.47 7.71 210.57 87.09 132.33 0"/><polygon class="cls-1" points="132.33 0 58.2 7.71 54.09 87.09 132.33 0"/><polygon class="cls-2" points="58.2 7.71 54.09 87.09 0 85.44 58.2 7.71"/><polygon class="cls-2" points="206.47 7.71 210.57 87.09 264.67 85.44 206.47 7.71"/><polygon class="cls-3" points="210.57 87.09 132.33 239.48 264.67 85.44 210.57 87.09"/><polygon class="cls-3" points="54.09 87.09 132.33 239.48 0 85.44 54.09 87.09"/><polygon class="cls-4" points="54.09 87.09 210.57 87.09 132.33 0 54.09 87.09"/><polygon class="cls-2" points="132.33 239.48 210.57 87.09 54.09 87.09 132.33 239.48"/></g></g></svg>