<svg width="39" height="40" viewBox="0 0 39 40" fill="none" xmlns="http://www.w3.org/2000/svg">
<path d="M15.5086 18.1384C15.8873 17.8571 16.0701 17.3929 16.0701 16.7545C16.0831 16.4509 16.0222 16.1518 15.8916 15.8795C15.7741 15.6607 15.6 15.4777 15.3867 15.3482C15.1656 15.2107 14.92 15.1196 14.6642 15.0804C14.3856 15.0268 14.1027 15 13.8241 15.0045H10.7642V18.5625H14.0766C14.6468 18.567 15.1299 18.4241 15.5086 18.1384V18.1384ZM16.0222 21.3527C15.5956 21.0179 15.0254 20.8527 14.316 20.8527H10.7555V25.0491H14.2463C14.5728 25.0491 14.8731 25.0179 15.1647 24.9554C15.4407 24.9 15.7037 24.7909 15.9395 24.6339C16.1615 24.4866 16.34 24.2857 16.4749 24.0268C16.6055 23.7679 16.6708 23.4375 16.6708 23.0402C16.6708 22.25 16.4531 21.692 16.0222 21.3527V21.3527ZM19.5 0C8.73147 0 0 8.95536 0 20C0 31.0446 8.73147 40 19.5 40C30.2685 40 39 31.0446 39 20C39 8.95536 30.2685 0 19.5 0ZM23.2651 12.808H29.2892V14.3125H23.2651V12.808ZM19.5 25.2143C19.2182 25.7629 18.8159 26.2367 18.3248 26.5982C17.8112 26.9643 17.241 27.2321 16.6359 27.3884C16.0029 27.5624 15.35 27.648 14.6946 27.6429H7.48661V12.4152H14.4944C15.2039 12.4152 15.8481 12.4821 16.4357 12.6071C17.019 12.7321 17.5152 12.9464 17.933 13.2366C18.3465 13.5268 18.673 13.9152 18.9037 14.3973C19.13 14.875 19.2475 15.4732 19.2475 16.183C19.2475 16.9509 19.0778 17.5848 18.7383 18.0982C18.3944 18.6116 17.8982 19.0268 17.2236 19.3527C18.142 19.6205 18.8166 20.0982 19.2606 20.7679C19.7133 21.4464 19.9353 22.2589 19.9353 23.2143C19.9353 23.9911 19.7916 24.6563 19.5 25.2143ZM31.6353 22.8571H23.8701C23.8701 23.7232 24.1617 24.5536 24.6013 25C25.0453 25.442 25.6808 25.6652 26.5122 25.6652C27.1128 25.6652 27.6221 25.5089 28.0574 25.2009C28.4883 24.8929 28.7494 24.567 28.8452 24.2277H31.4481C31.0302 25.5536 30.3948 26.5 29.5329 27.0714C28.6798 27.6429 27.6352 27.9286 26.4208 27.9286C25.572 27.9286 24.8103 27.7857 24.1269 27.5134C23.4696 27.25 22.8777 26.8482 22.3902 26.3304C21.9095 25.7985 21.538 25.1731 21.2977 24.4911C21.0321 23.7366 20.9016 22.942 20.9103 22.1429C20.9103 21.317 21.0452 20.5491 21.3064 19.8348C21.8069 18.4464 22.8472 17.3348 24.1748 16.7589C24.8843 16.4554 25.646 16.3036 26.4164 16.3125C27.3305 16.3125 28.1227 16.4911 28.8104 16.8571C29.4725 17.2067 30.0473 17.7077 30.4905 18.3214C30.9301 18.933 31.2392 19.6295 31.435 20.4152C31.6222 21.1875 31.6875 22 31.6353 22.8571V22.8571ZM26.325 18.5893C25.8549 18.5893 25.4588 18.6741 25.1541 18.8393C24.8494 19.0045 24.597 19.2098 24.4055 19.4464C24.2231 19.6749 24.0883 19.9392 24.0094 20.2232C23.9397 20.4598 23.8919 20.7009 23.8744 20.9464H28.6842C28.6145 20.1741 28.3534 19.6027 28.0051 19.2009C27.6395 18.8036 27.0519 18.5893 26.325 18.5893V18.5893Z" fill="#727272"/>
</svg>
