<svg width="48" height="48" viewBox="0 0 48 48" fill="none" xmlns="http://www.w3.org/2000/svg">
<g clip-path="url(#clip0)">
<path d="M13.7256 35.4001C13.1382 35.4009 12.5709 35.1857 12.132 34.7953L-0.0120087 24.0001L12.8064 12.6049C13.2842 12.1961 13.9033 11.9912 14.5306 12.0342C15.1579 12.0772 15.7433 12.3646 16.1608 12.8347C16.5784 13.3048 16.7948 13.92 16.7636 14.548C16.7323 15.176 16.4558 15.7666 15.9936 16.1929L7.21199 24.0001L15.3192 31.2049C15.6834 31.5281 15.9407 31.9544 16.0569 32.4272C16.1732 32.9001 16.1428 33.3971 15.9699 33.8523C15.797 34.3075 15.4897 34.6994 15.0888 34.9758C14.688 35.2523 14.2125 35.4002 13.7256 35.4001ZM35.1936 35.3953L48.012 24.0001L35.868 13.2049C35.3922 12.7822 34.768 12.5659 34.1327 12.6035C33.4974 12.6411 32.903 12.9295 32.4804 13.4053C32.0577 13.8811 31.8414 14.5053 31.879 15.1406C31.9166 15.7759 32.205 16.3702 32.6808 16.7929L40.788 24.0001L32.0064 31.8049C31.5303 32.2275 31.2416 32.822 31.2037 33.4575C31.1659 34.093 31.3821 34.7176 31.8048 35.1937C32.2274 35.6698 32.8219 35.9585 33.4574 35.9963C34.093 36.0341 34.7175 35.8179 35.1936 35.3953ZM23.9664 38.7961L28.7664 9.99608C28.8278 9.68133 28.8254 9.35746 28.7596 9.04362C28.6937 8.72978 28.5656 8.43233 28.3828 8.16883C28.2 7.90534 27.9663 7.68114 27.6954 7.50949C27.4245 7.33784 27.122 7.22221 26.8057 7.16944C26.4894 7.11667 26.1657 7.12782 25.8538 7.20224C25.5419 7.27666 25.248 7.41284 24.9896 7.60273C24.7312 7.79262 24.5135 8.03237 24.3493 8.30783C24.185 8.58328 24.0777 8.88885 24.0336 9.20648L19.2336 38.0065C19.1722 38.3212 19.1745 38.6451 19.2404 38.9589C19.3063 39.2728 19.4344 39.5702 19.6172 39.8337C19.8 40.0972 20.0337 40.3214 20.3046 40.4931C20.5754 40.6647 20.878 40.7803 21.1943 40.8331C21.5106 40.8859 21.8343 40.8747 22.1462 40.8003C22.4581 40.7259 22.752 40.5897 23.0104 40.3998C23.2688 40.2099 23.4865 39.9702 23.6507 39.6947C23.8149 39.4193 23.9223 39.1137 23.9664 38.7961Z" fill="#727272"/>
</g>
<defs>
<clipPath id="clip0">
<rect width="48" height="48" fill="white"/>
</clipPath>
</defs>
</svg>
