<svg width="40" height="38" viewBox="0 0 40 38" fill="none" xmlns="http://www.w3.org/2000/svg">
<path d="M20.0022 1.63295e-06C8.95096 -0.00435917 0 8.72596 0 19.5015C0 28.0225 5.59937 35.2658 13.3974 37.9259C14.4475 38.1832 14.2867 37.4549 14.2867 36.9578V33.5782C8.22255 34.2715 7.97676 30.3555 7.5701 29.7014C6.74785 28.3321 4.80393 27.9832 5.38487 27.3291C6.76572 26.6358 8.17339 27.5036 9.80449 29.854C10.9842 31.5591 13.2857 31.2713 14.452 30.9878C14.7067 29.963 15.2519 29.0473 16.0027 28.3365C9.71958 27.2375 7.10088 23.496 7.10088 19.048C7.10088 16.8894 7.82929 14.9052 9.2593 13.3048C8.34767 10.6665 9.34421 8.40762 9.47827 8.07184C12.0746 7.84508 14.7738 9.88593 14.9838 10.0473C16.4585 9.65917 18.1432 9.45421 20.029 9.45421C21.9238 9.45421 23.613 9.66789 25.1011 10.0604C25.6061 9.68534 28.1086 7.93229 30.5217 8.14597C30.6513 8.48176 31.6255 10.6883 30.7675 13.2917C32.2154 14.8965 32.9527 16.8981 32.9527 19.0611C32.9527 23.5178 30.3162 27.2637 24.0152 28.3452C24.5549 28.8631 24.9834 29.4808 25.2757 30.1621C25.5681 30.8435 25.7184 31.5749 25.7178 32.3135V37.2194C25.7535 37.6119 25.7178 38 26.3881 38C34.3023 35.3966 40 28.101 40 19.5059C40 8.72596 31.0446 1.63295e-06 20.0022 1.63295e-06V1.63295e-06Z" fill="#727272"/>
</svg>
