<svg width="38" height="38" viewBox="0 0 38 38" fill="none" xmlns="http://www.w3.org/2000/svg">
<path d="M29.4498 7.6001C30.7096 7.6001 31.9178 8.10054 32.8086 8.99134C33.6994 9.88214 34.1998 11.0903 34.1998 12.3501V27.5501C34.1998 28.8099 33.6994 30.0181 32.8086 30.9089C31.9178 31.7997 30.7096 32.3001 29.4498 32.3001H8.5498C7.29003 32.3001 6.08185 31.7997 5.19105 30.9089C4.30025 30.0181 3.7998 28.8099 3.7998 27.5501V12.3501C3.7998 11.0903 4.30025 9.88214 5.19105 8.99134C6.08185 8.10054 7.29003 7.6001 8.5498 7.6001H29.4498ZM32.2998 15.126L19.4824 22.669C19.3612 22.7401 19.2258 22.7835 19.0858 22.796C18.9459 22.8085 18.8049 22.7898 18.673 22.7412L18.5172 22.669L5.6998 15.1298V27.5501C5.6998 28.306 6.00007 29.0309 6.53455 29.5654C7.06903 30.0998 7.79394 30.4001 8.5498 30.4001H29.4498C30.2057 30.4001 30.9306 30.0998 31.4651 29.5654C31.9995 29.0309 32.2998 28.306 32.2998 27.5501V15.126ZM29.4498 9.5001H8.5498C7.79394 9.5001 7.06903 9.80036 6.53455 10.3348C6.00007 10.8693 5.6998 11.5942 5.6998 12.3501V12.9239L18.9998 20.7481L32.2998 12.9201V12.3501C32.2998 11.5942 31.9995 10.8693 31.4651 10.3348C30.9306 9.80036 30.2057 9.5001 29.4498 9.5001V9.5001Z" fill="#727272"/>
</svg>
