<svg width="34" height="44" viewBox="0 0 34 44" fill="none" xmlns="http://www.w3.org/2000/svg">
<path d="M32.4545 0H1.54545C0.690625 0 0 0.702232 0 1.57143V42.4286C0 43.2978 0.690625 44 1.54545 44H32.4545C33.3094 44 34 43.2978 34 42.4286V1.57143C34 0.702232 33.3094 0 32.4545 0ZM19.8977 3.53571H24.5341V13.8433L22.2884 12.1786L19.8977 13.917V3.53571ZM30.5227 40.4643H3.47727V3.53571H17V18.1156C17 18.2777 17.0483 18.4397 17.1449 18.5723C17.2035 18.6566 17.278 18.7282 17.364 18.783C17.4501 18.8378 17.5459 18.8748 17.6461 18.8917C17.7463 18.9086 17.8487 18.9051 17.9475 18.8815C18.0464 18.8578 18.1396 18.8145 18.2219 18.754L22.269 15.8125L26.2003 18.7295C26.3307 18.8277 26.4901 18.8817 26.6543 18.8817C27.0793 18.8817 27.427 18.5281 27.427 18.096V3.53571H30.5179V40.4643H30.5227Z" fill="#727272"/>
</svg>
