<svg width="58" height="58" viewBox="0 0 58 58" fill="none" xmlns="http://www.w3.org/2000/svg">
<g clip-path="url(#clip0)">
<path d="M38.5838 11.9453H9.47333C8.79211 11.9453 8.13878 12.2159 7.65708 12.6976C7.17538 13.1793 6.90476 13.8327 6.90476 14.5139V45.7648C6.90476 46.4461 7.17538 47.0994 7.65708 47.5811C8.13878 48.0628 8.79211 48.3334 9.47333 48.3334H38.5838C39.265 48.3334 39.9184 48.0628 40.4001 47.5811C40.8818 47.0994 41.1524 46.4461 41.1524 45.7648V14.5139C41.1524 13.8327 40.8818 13.1793 40.4001 12.6976C39.9184 12.2159 39.265 11.9453 38.5838 11.9453Z" fill="#727272"/>
<path opacity="0.2" d="M39.44 11.9453H30.0219C28.8398 11.9453 27.8814 12.9036 27.8814 14.0858V42.3401C27.8814 43.5222 28.8398 44.4805 30.0219 44.4805H39.44C40.6222 44.4805 41.5805 43.5222 41.5805 42.3401V14.0858C41.5805 12.9036 40.6222 11.9453 39.44 11.9453Z" fill="black"/>
<path d="M39.44 45.337C39.44 45.6776 39.3047 46.0042 39.0638 46.2451C38.823 46.4859 38.4963 46.6212 38.1557 46.6212H9.90143C9.56082 46.6212 9.23415 46.4859 8.9933 46.2451C8.75245 46.0042 8.61714 45.6776 8.61714 45.337V19.2231H39.44V45.337Z" fill="white"/>
<path d="M10.7576 17.0822C11.4669 17.0822 12.0419 16.5072 12.0419 15.798C12.0419 15.0887 11.4669 14.5137 10.7576 14.5137C10.0483 14.5137 9.47333 15.0887 9.47333 15.798C9.47333 16.5072 10.0483 17.0822 10.7576 17.0822Z" fill="#333333"/>
<path d="M14.1824 17.0822C14.8917 17.0822 15.4667 16.5072 15.4667 15.798C15.4667 15.0887 14.8917 14.5137 14.1824 14.5137C13.4731 14.5137 12.8981 15.0887 12.8981 15.798C12.8981 16.5072 13.4731 17.0822 14.1824 17.0822Z" fill="#4F4F4F"/>
<path d="M17.6071 17.0822C18.3164 17.0822 18.8914 16.5072 18.8914 15.798C18.8914 15.0887 18.3164 14.5137 17.6071 14.5137C16.8979 14.5137 16.3229 15.0887 16.3229 15.798C16.3229 16.5072 16.8979 17.0822 17.6071 17.0822Z" fill="#BDBDBD"/>
<path fill-rule="evenodd" clip-rule="evenodd" d="M10.3295 20.9355H37.7276V44.9089H10.3295V20.9355Z" fill="#C4C4C4"/>
<path fill-rule="evenodd" clip-rule="evenodd" d="M21.46 20.9355H37.7276V44.9089H21.46V20.9355Z" fill="#E5E5E5"/>
<path fill-rule="evenodd" clip-rule="evenodd" d="M47.1457 5.52393H31.7343C31.0531 5.52393 30.3997 5.79454 29.918 6.27624C29.4363 6.75794 29.1657 7.41127 29.1657 8.0925V40.6282C29.1659 41.3092 29.4367 41.9623 29.9183 42.4439C30.4 42.9254 31.0532 43.1959 31.7343 43.1959H47.1457C47.8268 43.1959 48.48 42.9254 48.9617 42.4439C49.4433 41.9623 49.7141 41.3092 49.7143 40.6282V8.0925C49.7143 7.41127 49.4437 6.75794 48.962 6.27624C48.4803 5.79454 47.8269 5.52393 47.1457 5.52393V5.52393ZM48.0019 37.203H30.8781V11.5173H48.0019V37.203Z" fill="#727272"/>
<path fill-rule="evenodd" clip-rule="evenodd" d="M30.8781 11.5171H48.0019V37.2028H30.8781V11.5171Z" fill="white"/>
<path fill-rule="evenodd" clip-rule="evenodd" d="M32.1624 12.8018H46.7176V35.9189H32.1624V12.8018Z" fill="#C4C4C4"/>
<path fill-rule="evenodd" clip-rule="evenodd" d="M32.1624 24.3604H46.7176V35.9189H32.1624V24.3604Z" fill="#D5D5D5"/>
<path fill-rule="evenodd" clip-rule="evenodd" d="M36.6574 8.09229H41.7945C41.9648 8.09229 42.1282 8.15994 42.2486 8.28036C42.369 8.40079 42.4367 8.56412 42.4367 8.73443C42.4367 8.90473 42.369 9.06807 42.2486 9.18849C42.1282 9.30892 41.9648 9.37657 41.7945 9.37657H36.6574C36.4871 9.37657 36.3237 9.30892 36.2033 9.18849C36.0829 9.06807 36.0152 8.90473 36.0152 8.73443C36.0152 8.56412 36.0829 8.40079 36.2033 8.28036C36.3237 8.15994 36.4871 8.09229 36.6574 8.09229ZM39.44 38.9156C39.7805 38.9156 40.1071 39.0508 40.3478 39.2916C40.5886 39.5324 40.7239 39.8589 40.7239 40.1994C40.7239 40.5399 40.5886 40.8665 40.3478 41.1073C40.1071 41.348 39.7805 41.4833 39.44 41.4833C39.2686 41.4877 39.0981 41.4578 38.9384 41.3952C38.7788 41.3327 38.6333 41.2389 38.5105 41.1192C38.3877 40.9995 38.2901 40.8565 38.2235 40.6986C38.1569 40.5406 38.1226 40.3709 38.1226 40.1994C38.1226 40.028 38.1569 39.8583 38.2235 39.7003C38.2901 39.5423 38.3877 39.3993 38.5105 39.2797C38.6333 39.16 38.7788 39.0661 38.9384 39.0036C39.0981 38.9411 39.2686 38.9111 39.44 38.9156Z" fill="#C4C4C4"/>
</g>
<defs>
<clipPath id="clip0">
<rect width="42.8095" height="42.8095" fill="white" transform="translate(6.90476 5.52393)"/>
</clipPath>
</defs>
</svg>
