<svg width="54" height="54" viewBox="0 0 54 54" fill="none" xmlns="http://www.w3.org/2000/svg">
<path d="M38.439 35.5768C40.5549 33.3412 41.9693 30.5345 42.5075 27.5038C43.0456 24.473 42.6838 21.351 41.4668 18.5236C40.2499 15.6962 38.2311 13.2874 35.66 11.5949C33.0889 9.90238 30.0782 9.00039 27 9.00039C23.9218 9.00039 20.9111 9.90238 18.34 11.5949C15.7689 13.2874 13.7501 15.6962 12.5332 18.5236C11.3162 21.351 10.9544 24.473 11.4925 27.5038C12.0307 30.5345 13.4451 33.3412 15.561 35.5768C16.7752 33.6392 18.4621 32.0421 20.463 30.9353C22.464 29.8286 24.7134 29.2486 27 29.2498C29.2866 29.2486 31.536 29.8286 33.537 30.9353C35.5379 32.0421 37.2248 33.6392 38.439 35.5768ZM27 53.3878L12.681 39.0688C9.84901 36.2368 7.92041 32.6286 7.13908 28.7005C6.35775 24.7724 6.75878 20.7008 8.29146 17.0006C9.82415 13.3004 12.4196 10.1378 15.7497 7.91272C19.0798 5.68764 22.9949 4.5 27 4.5C31.0051 4.5 34.9202 5.68764 38.2503 7.91272C41.5804 10.1378 44.1759 13.3004 45.7085 17.0006C47.2412 20.7008 47.6423 24.7724 46.8609 28.7005C46.0796 32.6286 44.151 36.2368 41.319 39.0688L27 53.3878ZM27 26.9998C25.2098 26.9998 23.4929 26.2887 22.227 25.0228C20.9612 23.7569 20.25 22.04 20.25 20.2498C20.25 18.4596 20.9612 16.7427 22.227 15.4769C23.4929 14.211 25.2098 13.4998 27 13.4998C28.7902 13.4998 30.5071 14.211 31.773 15.4769C33.0388 16.7427 33.75 18.4596 33.75 20.2498C33.75 22.04 33.0388 23.7569 31.773 25.0228C30.5071 26.2887 28.7902 26.9998 27 26.9998Z" fill="#727272"/>
</svg>
